G04 #@! TF.FileFunction,Copper,L1,Top,Signal*
%FSLAX46Y46*%
G04 Gerber Fmt 4.6, Leading zero omitted, Abs format (unit mm)*
G04 Created by KiCad (PCBNEW 4.0.2-stable) date Sunday, September 04, 2016 'PMt' 11:12:12 PM*
%MOMM*%
G01*
G04 APERTURE LIST*
%ADD10C,0.100000*%
%ADD11R,2.032000X1.727200*%
%ADD12O,2.032000X1.727200*%
%ADD13C,1.524000*%
%ADD14R,1.300000X1.300000*%
%ADD15C,1.300000*%
%ADD16C,0.600000*%
%ADD17C,0.250000*%
%ADD18C,0.508000*%
%ADD19C,0.381000*%
%ADD20C,0.254000*%
G04 APERTURE END LIST*
D10*
D11*
X154858333Y-114175000D03*
D12*
X154858333Y-116715000D03*
X154858333Y-119255000D03*
X154858333Y-121795000D03*
X154858333Y-124335000D03*
X154858333Y-126875000D03*
X154858333Y-129415000D03*
X154858333Y-131955000D03*
D13*
X144640000Y-126610000D03*
X144640000Y-124070000D03*
X144640000Y-121530000D03*
X144640000Y-118990000D03*
X142100000Y-118990000D03*
X142100000Y-121530000D03*
X142100000Y-124070000D03*
X142100000Y-126610000D03*
D14*
X139192000Y-135890000D03*
D15*
X144192000Y-135890000D03*
D16*
X150495000Y-118237000D03*
D17*
X144640000Y-121530000D02*
X149488000Y-121530000D01*
X151763000Y-119255000D02*
X154858333Y-119255000D01*
X149488000Y-121530000D02*
X151763000Y-119255000D01*
X144640000Y-118990000D02*
X144640000Y-116980000D01*
X150495000Y-116205000D02*
X150495000Y-118237000D01*
X149987000Y-115697000D02*
X150495000Y-116205000D01*
X145923000Y-115697000D02*
X149987000Y-115697000D01*
X144640000Y-116980000D02*
X145923000Y-115697000D01*
X142100000Y-121530000D02*
X142100000Y-121653000D01*
X142100000Y-121653000D02*
X143256000Y-122809000D01*
X143256000Y-122809000D02*
X147066000Y-122809000D01*
X147066000Y-122809000D02*
X148463000Y-124206000D01*
X148463000Y-124206000D02*
X148463000Y-127000000D01*
X148463000Y-127000000D02*
X148844000Y-127381000D01*
X148844000Y-127381000D02*
X154352333Y-127381000D01*
X154352333Y-127381000D02*
X154858333Y-126875000D01*
X142100000Y-124070000D02*
X142100000Y-124193000D01*
X142100000Y-124193000D02*
X143383000Y-125476000D01*
X143383000Y-125476000D02*
X143383000Y-128143000D01*
X143383000Y-128143000D02*
X144655000Y-129415000D01*
X144655000Y-129415000D02*
X154858333Y-129415000D01*
X139192000Y-135890000D02*
X138811000Y-135890000D01*
D18*
X138811000Y-135890000D02*
X137160000Y-134239000D01*
X137160000Y-131550000D02*
X142100000Y-126610000D01*
X137160000Y-134239000D02*
X137160000Y-131550000D01*
D19*
X142100000Y-126610000D02*
X142100000Y-129146000D01*
X144909000Y-131955000D02*
X154858333Y-131955000D01*
X142100000Y-129146000D02*
X144909000Y-131955000D01*
X144192000Y-135890000D02*
X146431000Y-135890000D01*
X157099000Y-133858000D02*
X157099000Y-127635000D01*
X156337000Y-134620000D02*
X157099000Y-133858000D01*
X147701000Y-134620000D02*
X156337000Y-134620000D01*
X146431000Y-135890000D02*
X147701000Y-134620000D01*
D17*
X144640000Y-126610000D02*
X146041000Y-126610000D01*
D19*
X157099000Y-116415667D02*
X154858333Y-114175000D01*
X157099000Y-127635000D02*
X157099000Y-116415667D01*
D17*
X156591000Y-128143000D02*
X157099000Y-127635000D01*
X153924000Y-128143000D02*
X156591000Y-128143000D01*
X153670000Y-128397000D02*
X153924000Y-128143000D01*
X147828000Y-128397000D02*
X153670000Y-128397000D01*
X146041000Y-126610000D02*
X147828000Y-128397000D01*
D20*
G36*
X157024000Y-134926000D02*
X148971000Y-134926000D01*
X148699295Y-134980046D01*
X148468954Y-135133954D01*
X148315046Y-135364295D01*
X148261000Y-135636000D01*
X148261000Y-140167908D01*
X145882908Y-142546000D01*
X138978092Y-142546000D01*
X136092000Y-139659908D01*
X136092000Y-135763000D01*
X136037954Y-135491295D01*
X135884046Y-135260954D01*
X135653705Y-135107046D01*
X135382000Y-135053000D01*
X128853000Y-135053000D01*
X128853000Y-131550000D01*
X136271000Y-131550000D01*
X136271000Y-134239000D01*
X136338671Y-134579206D01*
X136485533Y-134799000D01*
X136531382Y-134867618D01*
X137894560Y-136230796D01*
X137894560Y-136540000D01*
X137938838Y-136775317D01*
X138077910Y-136991441D01*
X138290110Y-137136431D01*
X138542000Y-137187440D01*
X139842000Y-137187440D01*
X140077317Y-137143162D01*
X140293441Y-137004090D01*
X140438431Y-136791890D01*
X140439012Y-136789016D01*
X143472590Y-136789016D01*
X143528271Y-137019611D01*
X144011078Y-137187622D01*
X144521428Y-137158083D01*
X144855729Y-137019611D01*
X144911410Y-136789016D01*
X144192000Y-136069605D01*
X143472590Y-136789016D01*
X140439012Y-136789016D01*
X140489440Y-136540000D01*
X140489440Y-135709078D01*
X142894378Y-135709078D01*
X142923917Y-136219428D01*
X143062389Y-136553729D01*
X143292984Y-136609410D01*
X144012395Y-135890000D01*
X144371605Y-135890000D01*
X145091016Y-136609410D01*
X145321611Y-136553729D01*
X145489622Y-136070922D01*
X145460083Y-135560572D01*
X145321611Y-135226271D01*
X145091016Y-135170590D01*
X144371605Y-135890000D01*
X144012395Y-135890000D01*
X143292984Y-135170590D01*
X143062389Y-135226271D01*
X142894378Y-135709078D01*
X140489440Y-135709078D01*
X140489440Y-135240000D01*
X140445162Y-135004683D01*
X140436347Y-134990984D01*
X143472590Y-134990984D01*
X144192000Y-135710395D01*
X144911410Y-134990984D01*
X144855729Y-134760389D01*
X144372922Y-134592378D01*
X143862572Y-134621917D01*
X143528271Y-134760389D01*
X143472590Y-134990984D01*
X140436347Y-134990984D01*
X140306090Y-134788559D01*
X140093890Y-134643569D01*
X139842000Y-134592560D01*
X138770796Y-134592560D01*
X138049000Y-133870764D01*
X138049000Y-131918236D01*
X141274500Y-128692736D01*
X141274500Y-129146000D01*
X141337337Y-129461906D01*
X141516283Y-129729717D01*
X144325283Y-132538717D01*
X144593094Y-132717663D01*
X144909000Y-132780501D01*
X144909005Y-132780500D01*
X153457450Y-132780500D01*
X153613918Y-133014670D01*
X154100099Y-133339526D01*
X154673588Y-133453600D01*
X155043078Y-133453600D01*
X155616567Y-133339526D01*
X156102748Y-133014670D01*
X156427604Y-132528489D01*
X156541678Y-131955000D01*
X156427604Y-131381511D01*
X156102748Y-130895330D01*
X155787967Y-130685000D01*
X156102748Y-130474670D01*
X156427604Y-129988489D01*
X156541678Y-129415000D01*
X156427604Y-128841511D01*
X156102748Y-128355330D01*
X155787967Y-128145000D01*
X156102748Y-127934670D01*
X156427604Y-127448489D01*
X156541678Y-126875000D01*
X156427604Y-126301511D01*
X156102748Y-125815330D01*
X155787967Y-125605000D01*
X156102748Y-125394670D01*
X156427604Y-124908489D01*
X156541678Y-124335000D01*
X156427604Y-123761511D01*
X156102748Y-123275330D01*
X155787967Y-123065000D01*
X156102748Y-122854670D01*
X156427604Y-122368489D01*
X156541678Y-121795000D01*
X156427604Y-121221511D01*
X156102748Y-120735330D01*
X155787967Y-120525000D01*
X156102748Y-120314670D01*
X156427604Y-119828489D01*
X156541678Y-119255000D01*
X156427604Y-118681511D01*
X156102748Y-118195330D01*
X155787967Y-117985000D01*
X156102748Y-117774670D01*
X156427604Y-117288489D01*
X156541678Y-116715000D01*
X156427604Y-116141511D01*
X156102748Y-115655330D01*
X156080553Y-115640500D01*
X156234031Y-115576927D01*
X156412660Y-115398299D01*
X156509333Y-115164910D01*
X156509333Y-114460750D01*
X156350583Y-114302000D01*
X154985333Y-114302000D01*
X154985333Y-114322000D01*
X154731333Y-114322000D01*
X154731333Y-114302000D01*
X153366083Y-114302000D01*
X153207333Y-114460750D01*
X153207333Y-115164910D01*
X153304006Y-115398299D01*
X153482635Y-115576927D01*
X153636113Y-115640500D01*
X153613918Y-115655330D01*
X153289062Y-116141511D01*
X153174988Y-116715000D01*
X153289062Y-117288489D01*
X153613918Y-117774670D01*
X153928699Y-117985000D01*
X153613918Y-118195330D01*
X153413685Y-118495000D01*
X151763000Y-118495000D01*
X151472161Y-118552852D01*
X151339421Y-118641546D01*
X151429838Y-118423799D01*
X151430162Y-118051833D01*
X151288117Y-117708057D01*
X151255000Y-117674882D01*
X151255000Y-116205000D01*
X151197148Y-115914161D01*
X151032401Y-115667599D01*
X150524401Y-115159599D01*
X150277839Y-114994852D01*
X149987000Y-114937000D01*
X145923000Y-114937000D01*
X145632161Y-114994852D01*
X145385599Y-115159599D01*
X144102599Y-116442599D01*
X143937852Y-116689161D01*
X143880000Y-116980000D01*
X143880000Y-117792469D01*
X143849697Y-117804990D01*
X143456371Y-118197630D01*
X143370051Y-118405512D01*
X143285010Y-118199697D01*
X142892370Y-117806371D01*
X142379100Y-117593243D01*
X141823339Y-117592758D01*
X141309697Y-117804990D01*
X140916371Y-118197630D01*
X140703243Y-118710900D01*
X140702758Y-119266661D01*
X140914990Y-119780303D01*
X141307630Y-120173629D01*
X141515512Y-120259949D01*
X141309697Y-120344990D01*
X140916371Y-120737630D01*
X140703243Y-121250900D01*
X140702758Y-121806661D01*
X140914990Y-122320303D01*
X141307630Y-122713629D01*
X141515512Y-122799949D01*
X141309697Y-122884990D01*
X140916371Y-123277630D01*
X140703243Y-123790900D01*
X140702758Y-124346661D01*
X140914990Y-124860303D01*
X141307630Y-125253629D01*
X141515512Y-125339949D01*
X141309697Y-125424990D01*
X140916371Y-125817630D01*
X140703243Y-126330900D01*
X140702877Y-126749887D01*
X136531382Y-130921382D01*
X136338671Y-131209794D01*
X136271000Y-131550000D01*
X128853000Y-131550000D01*
X128853000Y-113185090D01*
X153207333Y-113185090D01*
X153207333Y-113889250D01*
X153366083Y-114048000D01*
X154731333Y-114048000D01*
X154731333Y-112835150D01*
X154985333Y-112835150D01*
X154985333Y-114048000D01*
X156350583Y-114048000D01*
X156509333Y-113889250D01*
X156509333Y-113185090D01*
X156412660Y-112951701D01*
X156234031Y-112773073D01*
X156000642Y-112676400D01*
X155144083Y-112676400D01*
X154985333Y-112835150D01*
X154731333Y-112835150D01*
X154572583Y-112676400D01*
X153716024Y-112676400D01*
X153482635Y-112773073D01*
X153304006Y-112951701D01*
X153207333Y-113185090D01*
X128853000Y-113185090D01*
X128853000Y-111835000D01*
X157024000Y-111835000D01*
X157024000Y-134926000D01*
X157024000Y-134926000D01*
G37*
X157024000Y-134926000D02*
X148971000Y-134926000D01*
X148699295Y-134980046D01*
X148468954Y-135133954D01*
X148315046Y-135364295D01*
X148261000Y-135636000D01*
X148261000Y-140167908D01*
X145882908Y-142546000D01*
X138978092Y-142546000D01*
X136092000Y-139659908D01*
X136092000Y-135763000D01*
X136037954Y-135491295D01*
X135884046Y-135260954D01*
X135653705Y-135107046D01*
X135382000Y-135053000D01*
X128853000Y-135053000D01*
X128853000Y-131550000D01*
X136271000Y-131550000D01*
X136271000Y-134239000D01*
X136338671Y-134579206D01*
X136485533Y-134799000D01*
X136531382Y-134867618D01*
X137894560Y-136230796D01*
X137894560Y-136540000D01*
X137938838Y-136775317D01*
X138077910Y-136991441D01*
X138290110Y-137136431D01*
X138542000Y-137187440D01*
X139842000Y-137187440D01*
X140077317Y-137143162D01*
X140293441Y-137004090D01*
X140438431Y-136791890D01*
X140439012Y-136789016D01*
X143472590Y-136789016D01*
X143528271Y-137019611D01*
X144011078Y-137187622D01*
X144521428Y-137158083D01*
X144855729Y-137019611D01*
X144911410Y-136789016D01*
X144192000Y-136069605D01*
X143472590Y-136789016D01*
X140439012Y-136789016D01*
X140489440Y-136540000D01*
X140489440Y-135709078D01*
X142894378Y-135709078D01*
X142923917Y-136219428D01*
X143062389Y-136553729D01*
X143292984Y-136609410D01*
X144012395Y-135890000D01*
X144371605Y-135890000D01*
X145091016Y-136609410D01*
X145321611Y-136553729D01*
X145489622Y-136070922D01*
X145460083Y-135560572D01*
X145321611Y-135226271D01*
X145091016Y-135170590D01*
X144371605Y-135890000D01*
X144012395Y-135890000D01*
X143292984Y-135170590D01*
X143062389Y-135226271D01*
X142894378Y-135709078D01*
X140489440Y-135709078D01*
X140489440Y-135240000D01*
X140445162Y-135004683D01*
X140436347Y-134990984D01*
X143472590Y-134990984D01*
X144192000Y-135710395D01*
X144911410Y-134990984D01*
X144855729Y-134760389D01*
X144372922Y-134592378D01*
X143862572Y-134621917D01*
X143528271Y-134760389D01*
X143472590Y-134990984D01*
X140436347Y-134990984D01*
X140306090Y-134788559D01*
X140093890Y-134643569D01*
X139842000Y-134592560D01*
X138770796Y-134592560D01*
X138049000Y-133870764D01*
X138049000Y-131918236D01*
X141274500Y-128692736D01*
X141274500Y-129146000D01*
X141337337Y-129461906D01*
X141516283Y-129729717D01*
X144325283Y-132538717D01*
X144593094Y-132717663D01*
X144909000Y-132780501D01*
X144909005Y-132780500D01*
X153457450Y-132780500D01*
X153613918Y-133014670D01*
X154100099Y-133339526D01*
X154673588Y-133453600D01*
X155043078Y-133453600D01*
X155616567Y-133339526D01*
X156102748Y-133014670D01*
X156427604Y-132528489D01*
X156541678Y-131955000D01*
X156427604Y-131381511D01*
X156102748Y-130895330D01*
X155787967Y-130685000D01*
X156102748Y-130474670D01*
X156427604Y-129988489D01*
X156541678Y-129415000D01*
X156427604Y-128841511D01*
X156102748Y-128355330D01*
X155787967Y-128145000D01*
X156102748Y-127934670D01*
X156427604Y-127448489D01*
X156541678Y-126875000D01*
X156427604Y-126301511D01*
X156102748Y-125815330D01*
X155787967Y-125605000D01*
X156102748Y-125394670D01*
X156427604Y-124908489D01*
X156541678Y-124335000D01*
X156427604Y-123761511D01*
X156102748Y-123275330D01*
X155787967Y-123065000D01*
X156102748Y-122854670D01*
X156427604Y-122368489D01*
X156541678Y-121795000D01*
X156427604Y-121221511D01*
X156102748Y-120735330D01*
X155787967Y-120525000D01*
X156102748Y-120314670D01*
X156427604Y-119828489D01*
X156541678Y-119255000D01*
X156427604Y-118681511D01*
X156102748Y-118195330D01*
X155787967Y-117985000D01*
X156102748Y-117774670D01*
X156427604Y-117288489D01*
X156541678Y-116715000D01*
X156427604Y-116141511D01*
X156102748Y-115655330D01*
X156080553Y-115640500D01*
X156234031Y-115576927D01*
X156412660Y-115398299D01*
X156509333Y-115164910D01*
X156509333Y-114460750D01*
X156350583Y-114302000D01*
X154985333Y-114302000D01*
X154985333Y-114322000D01*
X154731333Y-114322000D01*
X154731333Y-114302000D01*
X153366083Y-114302000D01*
X153207333Y-114460750D01*
X153207333Y-115164910D01*
X153304006Y-115398299D01*
X153482635Y-115576927D01*
X153636113Y-115640500D01*
X153613918Y-115655330D01*
X153289062Y-116141511D01*
X153174988Y-116715000D01*
X153289062Y-117288489D01*
X153613918Y-117774670D01*
X153928699Y-117985000D01*
X153613918Y-118195330D01*
X153413685Y-118495000D01*
X151763000Y-118495000D01*
X151472161Y-118552852D01*
X151339421Y-118641546D01*
X151429838Y-118423799D01*
X151430162Y-118051833D01*
X151288117Y-117708057D01*
X151255000Y-117674882D01*
X151255000Y-116205000D01*
X151197148Y-115914161D01*
X151032401Y-115667599D01*
X150524401Y-115159599D01*
X150277839Y-114994852D01*
X149987000Y-114937000D01*
X145923000Y-114937000D01*
X145632161Y-114994852D01*
X145385599Y-115159599D01*
X144102599Y-116442599D01*
X143937852Y-116689161D01*
X143880000Y-116980000D01*
X143880000Y-117792469D01*
X143849697Y-117804990D01*
X143456371Y-118197630D01*
X143370051Y-118405512D01*
X143285010Y-118199697D01*
X142892370Y-117806371D01*
X142379100Y-117593243D01*
X141823339Y-117592758D01*
X141309697Y-117804990D01*
X140916371Y-118197630D01*
X140703243Y-118710900D01*
X140702758Y-119266661D01*
X140914990Y-119780303D01*
X141307630Y-120173629D01*
X141515512Y-120259949D01*
X141309697Y-120344990D01*
X140916371Y-120737630D01*
X140703243Y-121250900D01*
X140702758Y-121806661D01*
X140914990Y-122320303D01*
X141307630Y-122713629D01*
X141515512Y-122799949D01*
X141309697Y-122884990D01*
X140916371Y-123277630D01*
X140703243Y-123790900D01*
X140702758Y-124346661D01*
X140914990Y-124860303D01*
X141307630Y-125253629D01*
X141515512Y-125339949D01*
X141309697Y-125424990D01*
X140916371Y-125817630D01*
X140703243Y-126330900D01*
X140702877Y-126749887D01*
X136531382Y-130921382D01*
X136338671Y-131209794D01*
X136271000Y-131550000D01*
X128853000Y-131550000D01*
X128853000Y-113185090D01*
X153207333Y-113185090D01*
X153207333Y-113889250D01*
X153366083Y-114048000D01*
X154731333Y-114048000D01*
X154731333Y-112835150D01*
X154985333Y-112835150D01*
X154985333Y-114048000D01*
X156350583Y-114048000D01*
X156509333Y-113889250D01*
X156509333Y-113185090D01*
X156412660Y-112951701D01*
X156234031Y-112773073D01*
X156000642Y-112676400D01*
X155144083Y-112676400D01*
X154985333Y-112835150D01*
X154731333Y-112835150D01*
X154572583Y-112676400D01*
X153716024Y-112676400D01*
X153482635Y-112773073D01*
X153304006Y-112951701D01*
X153207333Y-113185090D01*
X128853000Y-113185090D01*
X128853000Y-111835000D01*
X157024000Y-111835000D01*
X157024000Y-134926000D01*
G36*
X147703000Y-124520802D02*
X147703000Y-127000000D01*
X147760852Y-127290839D01*
X147925599Y-127537401D01*
X148306599Y-127918401D01*
X148553160Y-128083148D01*
X148844000Y-128141000D01*
X153922712Y-128141000D01*
X153928699Y-128145000D01*
X153613918Y-128355330D01*
X153413685Y-128655000D01*
X144969802Y-128655000D01*
X144279394Y-127964592D01*
X144432302Y-128019144D01*
X144987368Y-127991362D01*
X145371143Y-127832397D01*
X145440608Y-127590213D01*
X144640000Y-126789605D01*
X144625858Y-126803748D01*
X144446253Y-126624143D01*
X144460395Y-126610000D01*
X144819605Y-126610000D01*
X145620213Y-127410608D01*
X145862397Y-127341143D01*
X146049144Y-126817698D01*
X146021362Y-126262632D01*
X145862397Y-125878857D01*
X145620213Y-125809392D01*
X144819605Y-126610000D01*
X144460395Y-126610000D01*
X144446253Y-126595858D01*
X144625858Y-126416253D01*
X144640000Y-126430395D01*
X145440608Y-125629787D01*
X145371143Y-125387603D01*
X145230682Y-125337491D01*
X145430303Y-125255010D01*
X145823629Y-124862370D01*
X146036757Y-124349100D01*
X146037242Y-123793339D01*
X145944547Y-123569000D01*
X146751198Y-123569000D01*
X147703000Y-124520802D01*
X147703000Y-124520802D01*
G37*
X147703000Y-124520802D02*
X147703000Y-127000000D01*
X147760852Y-127290839D01*
X147925599Y-127537401D01*
X148306599Y-127918401D01*
X148553160Y-128083148D01*
X148844000Y-128141000D01*
X153922712Y-128141000D01*
X153928699Y-128145000D01*
X153613918Y-128355330D01*
X153413685Y-128655000D01*
X144969802Y-128655000D01*
X144279394Y-127964592D01*
X144432302Y-128019144D01*
X144987368Y-127991362D01*
X145371143Y-127832397D01*
X145440608Y-127590213D01*
X144640000Y-126789605D01*
X144625858Y-126803748D01*
X144446253Y-126624143D01*
X144460395Y-126610000D01*
X144819605Y-126610000D01*
X145620213Y-127410608D01*
X145862397Y-127341143D01*
X146049144Y-126817698D01*
X146021362Y-126262632D01*
X145862397Y-125878857D01*
X145620213Y-125809392D01*
X144819605Y-126610000D01*
X144460395Y-126610000D01*
X144446253Y-126595858D01*
X144625858Y-126416253D01*
X144640000Y-126430395D01*
X145440608Y-125629787D01*
X145371143Y-125387603D01*
X145230682Y-125337491D01*
X145430303Y-125255010D01*
X145823629Y-124862370D01*
X146036757Y-124349100D01*
X146037242Y-123793339D01*
X145944547Y-123569000D01*
X146751198Y-123569000D01*
X147703000Y-124520802D01*
M02*
