G04 #@! TF.FileFunction,Legend,Top*
%FSLAX46Y46*%
G04 Gerber Fmt 4.6, Leading zero omitted, Abs format (unit mm)*
G04 Created by KiCad (PCBNEW 4.0.2-stable) date Sunday, September 04, 2016 'PMt' 11:12:12 PM*
%MOMM*%
G01*
G04 APERTURE LIST*
%ADD10C,0.100000*%
%ADD11C,0.250000*%
%ADD12C,0.200000*%
%ADD13C,0.150000*%
%ADD14C,0.125000*%
G04 APERTURE END LIST*
D10*
D11*
X129231475Y-112752714D02*
X129231475Y-113419381D01*
X129231475Y-112847952D02*
X129279094Y-112800333D01*
X129374332Y-112752714D01*
X129517190Y-112752714D01*
X129612428Y-112800333D01*
X129660047Y-112895571D01*
X129660047Y-113419381D01*
X130707666Y-113419381D02*
X130374332Y-112943190D01*
X130136237Y-113419381D02*
X130136237Y-112419381D01*
X130517190Y-112419381D01*
X130612428Y-112467000D01*
X130660047Y-112514619D01*
X130707666Y-112609857D01*
X130707666Y-112752714D01*
X130660047Y-112847952D01*
X130612428Y-112895571D01*
X130517190Y-112943190D01*
X130136237Y-112943190D01*
X131469571Y-112895571D02*
X131136237Y-112895571D01*
X131136237Y-113419381D02*
X131136237Y-112419381D01*
X131612428Y-112419381D01*
X131945761Y-112514619D02*
X131993380Y-112467000D01*
X132088618Y-112419381D01*
X132326714Y-112419381D01*
X132421952Y-112467000D01*
X132469571Y-112514619D01*
X132517190Y-112609857D01*
X132517190Y-112705095D01*
X132469571Y-112847952D01*
X131898142Y-113419381D01*
X132517190Y-113419381D01*
X133374333Y-112752714D02*
X133374333Y-113419381D01*
X133136237Y-112371762D02*
X132898142Y-113086048D01*
X133517190Y-113086048D01*
X134993381Y-112895571D02*
X135136238Y-112943190D01*
X135183857Y-112990810D01*
X135231476Y-113086048D01*
X135231476Y-113228905D01*
X135183857Y-113324143D01*
X135136238Y-113371762D01*
X135041000Y-113419381D01*
X134660047Y-113419381D01*
X134660047Y-112419381D01*
X134993381Y-112419381D01*
X135088619Y-112467000D01*
X135136238Y-112514619D01*
X135183857Y-112609857D01*
X135183857Y-112705095D01*
X135136238Y-112800333D01*
X135088619Y-112847952D01*
X134993381Y-112895571D01*
X134660047Y-112895571D01*
X135660047Y-113419381D02*
X135660047Y-112752714D01*
X135660047Y-112943190D02*
X135707666Y-112847952D01*
X135755285Y-112800333D01*
X135850523Y-112752714D01*
X135945762Y-112752714D01*
X136660048Y-113371762D02*
X136564810Y-113419381D01*
X136374333Y-113419381D01*
X136279095Y-113371762D01*
X136231476Y-113276524D01*
X136231476Y-112895571D01*
X136279095Y-112800333D01*
X136374333Y-112752714D01*
X136564810Y-112752714D01*
X136660048Y-112800333D01*
X136707667Y-112895571D01*
X136707667Y-112990810D01*
X136231476Y-113086048D01*
X137564810Y-113419381D02*
X137564810Y-112895571D01*
X137517191Y-112800333D01*
X137421953Y-112752714D01*
X137231476Y-112752714D01*
X137136238Y-112800333D01*
X137564810Y-113371762D02*
X137469572Y-113419381D01*
X137231476Y-113419381D01*
X137136238Y-113371762D01*
X137088619Y-113276524D01*
X137088619Y-113181286D01*
X137136238Y-113086048D01*
X137231476Y-113038429D01*
X137469572Y-113038429D01*
X137564810Y-112990810D01*
X138041000Y-113419381D02*
X138041000Y-112419381D01*
X138136238Y-113038429D02*
X138421953Y-113419381D01*
X138421953Y-112752714D02*
X138041000Y-113133667D01*
X138993381Y-113419381D02*
X138898143Y-113371762D01*
X138850524Y-113324143D01*
X138802905Y-113228905D01*
X138802905Y-112943190D01*
X138850524Y-112847952D01*
X138898143Y-112800333D01*
X138993381Y-112752714D01*
X139136239Y-112752714D01*
X139231477Y-112800333D01*
X139279096Y-112847952D01*
X139326715Y-112943190D01*
X139326715Y-113228905D01*
X139279096Y-113324143D01*
X139231477Y-113371762D01*
X139136239Y-113419381D01*
X138993381Y-113419381D01*
X140183858Y-112752714D02*
X140183858Y-113419381D01*
X139755286Y-112752714D02*
X139755286Y-113276524D01*
X139802905Y-113371762D01*
X139898143Y-113419381D01*
X140041001Y-113419381D01*
X140136239Y-113371762D01*
X140183858Y-113324143D01*
X140517191Y-112752714D02*
X140898143Y-112752714D01*
X140660048Y-112419381D02*
X140660048Y-113276524D01*
X140707667Y-113371762D01*
X140802905Y-113419381D01*
X140898143Y-113419381D01*
X142326716Y-112895571D02*
X142469573Y-112943190D01*
X142517192Y-112990810D01*
X142564811Y-113086048D01*
X142564811Y-113228905D01*
X142517192Y-113324143D01*
X142469573Y-113371762D01*
X142374335Y-113419381D01*
X141993382Y-113419381D01*
X141993382Y-112419381D01*
X142326716Y-112419381D01*
X142421954Y-112467000D01*
X142469573Y-112514619D01*
X142517192Y-112609857D01*
X142517192Y-112705095D01*
X142469573Y-112800333D01*
X142421954Y-112847952D01*
X142326716Y-112895571D01*
X141993382Y-112895571D01*
X143136239Y-113419381D02*
X143041001Y-113371762D01*
X142993382Y-113324143D01*
X142945763Y-113228905D01*
X142945763Y-112943190D01*
X142993382Y-112847952D01*
X143041001Y-112800333D01*
X143136239Y-112752714D01*
X143279097Y-112752714D01*
X143374335Y-112800333D01*
X143421954Y-112847952D01*
X143469573Y-112943190D01*
X143469573Y-113228905D01*
X143421954Y-113324143D01*
X143374335Y-113371762D01*
X143279097Y-113419381D01*
X143136239Y-113419381D01*
X144326716Y-113419381D02*
X144326716Y-112895571D01*
X144279097Y-112800333D01*
X144183859Y-112752714D01*
X143993382Y-112752714D01*
X143898144Y-112800333D01*
X144326716Y-113371762D02*
X144231478Y-113419381D01*
X143993382Y-113419381D01*
X143898144Y-113371762D01*
X143850525Y-113276524D01*
X143850525Y-113181286D01*
X143898144Y-113086048D01*
X143993382Y-113038429D01*
X144231478Y-113038429D01*
X144326716Y-112990810D01*
X144802906Y-113419381D02*
X144802906Y-112752714D01*
X144802906Y-112943190D02*
X144850525Y-112847952D01*
X144898144Y-112800333D01*
X144993382Y-112752714D01*
X145088621Y-112752714D01*
X145850526Y-113419381D02*
X145850526Y-112419381D01*
X145850526Y-113371762D02*
X145755288Y-113419381D01*
X145564811Y-113419381D01*
X145469573Y-113371762D01*
X145421954Y-113324143D01*
X145374335Y-113228905D01*
X145374335Y-112943190D01*
X145421954Y-112847952D01*
X145469573Y-112800333D01*
X145564811Y-112752714D01*
X145755288Y-112752714D01*
X145850526Y-112800333D01*
X130945762Y-114545571D02*
X131088619Y-114593190D01*
X131136238Y-114640810D01*
X131183857Y-114736048D01*
X131183857Y-114878905D01*
X131136238Y-114974143D01*
X131088619Y-115021762D01*
X130993381Y-115069381D01*
X130612428Y-115069381D01*
X130612428Y-114069381D01*
X130945762Y-114069381D01*
X131041000Y-114117000D01*
X131088619Y-114164619D01*
X131136238Y-114259857D01*
X131136238Y-114355095D01*
X131088619Y-114450333D01*
X131041000Y-114497952D01*
X130945762Y-114545571D01*
X130612428Y-114545571D01*
X131612428Y-114974143D02*
X131660047Y-115021762D01*
X131612428Y-115069381D01*
X131564809Y-115021762D01*
X131612428Y-114974143D01*
X131612428Y-115069381D01*
X133421952Y-114974143D02*
X133374333Y-115021762D01*
X133231476Y-115069381D01*
X133136238Y-115069381D01*
X132993380Y-115021762D01*
X132898142Y-114926524D01*
X132850523Y-114831286D01*
X132802904Y-114640810D01*
X132802904Y-114497952D01*
X132850523Y-114307476D01*
X132898142Y-114212238D01*
X132993380Y-114117000D01*
X133136238Y-114069381D01*
X133231476Y-114069381D01*
X133374333Y-114117000D01*
X133421952Y-114164619D01*
X134279095Y-115069381D02*
X134279095Y-114545571D01*
X134231476Y-114450333D01*
X134136238Y-114402714D01*
X133945761Y-114402714D01*
X133850523Y-114450333D01*
X134279095Y-115021762D02*
X134183857Y-115069381D01*
X133945761Y-115069381D01*
X133850523Y-115021762D01*
X133802904Y-114926524D01*
X133802904Y-114831286D01*
X133850523Y-114736048D01*
X133945761Y-114688429D01*
X134183857Y-114688429D01*
X134279095Y-114640810D01*
X134755285Y-115069381D02*
X134755285Y-114402714D01*
X134755285Y-114593190D02*
X134802904Y-114497952D01*
X134850523Y-114450333D01*
X134945761Y-114402714D01*
X135041000Y-114402714D01*
X135374333Y-115069381D02*
X135374333Y-114402714D01*
X135374333Y-114593190D02*
X135421952Y-114497952D01*
X135469571Y-114450333D01*
X135564809Y-114402714D01*
X135660048Y-114402714D01*
X135993381Y-115069381D02*
X135993381Y-114402714D01*
X135993381Y-114069381D02*
X135945762Y-114117000D01*
X135993381Y-114164619D01*
X136041000Y-114117000D01*
X135993381Y-114069381D01*
X135993381Y-114164619D01*
X136374333Y-114402714D02*
X136898143Y-114402714D01*
X136374333Y-115069381D01*
X136898143Y-115069381D01*
X137707667Y-115069381D02*
X137707667Y-114545571D01*
X137660048Y-114450333D01*
X137564810Y-114402714D01*
X137374333Y-114402714D01*
X137279095Y-114450333D01*
X137707667Y-115021762D02*
X137612429Y-115069381D01*
X137374333Y-115069381D01*
X137279095Y-115021762D01*
X137231476Y-114926524D01*
X137231476Y-114831286D01*
X137279095Y-114736048D01*
X137374333Y-114688429D01*
X137612429Y-114688429D01*
X137707667Y-114640810D01*
X138326714Y-115069381D02*
X138231476Y-115021762D01*
X138183857Y-114926524D01*
X138183857Y-114069381D01*
X139088620Y-115021762D02*
X138993382Y-115069381D01*
X138802905Y-115069381D01*
X138707667Y-115021762D01*
X138660048Y-114926524D01*
X138660048Y-114545571D01*
X138707667Y-114450333D01*
X138802905Y-114402714D01*
X138993382Y-114402714D01*
X139088620Y-114450333D01*
X139136239Y-114545571D01*
X139136239Y-114640810D01*
X138660048Y-114736048D01*
X139517191Y-115021762D02*
X139612429Y-115069381D01*
X139802905Y-115069381D01*
X139898144Y-115021762D01*
X139945763Y-114926524D01*
X139945763Y-114878905D01*
X139898144Y-114783667D01*
X139802905Y-114736048D01*
X139660048Y-114736048D01*
X139564810Y-114688429D01*
X139517191Y-114593190D01*
X139517191Y-114545571D01*
X139564810Y-114450333D01*
X139660048Y-114402714D01*
X139802905Y-114402714D01*
X139898144Y-114450333D01*
X141088620Y-114164619D02*
X141136239Y-114117000D01*
X141231477Y-114069381D01*
X141469573Y-114069381D01*
X141564811Y-114117000D01*
X141612430Y-114164619D01*
X141660049Y-114259857D01*
X141660049Y-114355095D01*
X141612430Y-114497952D01*
X141041001Y-115069381D01*
X141660049Y-115069381D01*
X142279096Y-114069381D02*
X142374335Y-114069381D01*
X142469573Y-114117000D01*
X142517192Y-114164619D01*
X142564811Y-114259857D01*
X142612430Y-114450333D01*
X142612430Y-114688429D01*
X142564811Y-114878905D01*
X142517192Y-114974143D01*
X142469573Y-115021762D01*
X142374335Y-115069381D01*
X142279096Y-115069381D01*
X142183858Y-115021762D01*
X142136239Y-114974143D01*
X142088620Y-114878905D01*
X142041001Y-114688429D01*
X142041001Y-114450333D01*
X142088620Y-114259857D01*
X142136239Y-114164619D01*
X142183858Y-114117000D01*
X142279096Y-114069381D01*
X143564811Y-115069381D02*
X142993382Y-115069381D01*
X143279096Y-115069381D02*
X143279096Y-114069381D01*
X143183858Y-114212238D01*
X143088620Y-114307476D01*
X142993382Y-114355095D01*
X144421954Y-114069381D02*
X144231477Y-114069381D01*
X144136239Y-114117000D01*
X144088620Y-114164619D01*
X143993382Y-114307476D01*
X143945763Y-114497952D01*
X143945763Y-114878905D01*
X143993382Y-114974143D01*
X144041001Y-115021762D01*
X144136239Y-115069381D01*
X144326716Y-115069381D01*
X144421954Y-115021762D01*
X144469573Y-114974143D01*
X144517192Y-114878905D01*
X144517192Y-114640810D01*
X144469573Y-114545571D01*
X144421954Y-114497952D01*
X144326716Y-114450333D01*
X144136239Y-114450333D01*
X144041001Y-114497952D01*
X143993382Y-114545571D01*
X143945763Y-114640810D01*
D12*
X151155477Y-114281000D02*
X151079286Y-114242905D01*
X150965001Y-114242905D01*
X150850715Y-114281000D01*
X150774524Y-114357190D01*
X150736429Y-114433381D01*
X150698334Y-114585762D01*
X150698334Y-114700048D01*
X150736429Y-114852429D01*
X150774524Y-114928619D01*
X150850715Y-115004810D01*
X150965001Y-115042905D01*
X151041191Y-115042905D01*
X151155477Y-115004810D01*
X151193572Y-114966714D01*
X151193572Y-114700048D01*
X151041191Y-114700048D01*
X151536429Y-115042905D02*
X151536429Y-114242905D01*
X151993572Y-115042905D01*
X151993572Y-114242905D01*
X152374524Y-115042905D02*
X152374524Y-114242905D01*
X152565000Y-114242905D01*
X152679286Y-114281000D01*
X152755477Y-114357190D01*
X152793572Y-114433381D01*
X152831667Y-114585762D01*
X152831667Y-114700048D01*
X152793572Y-114852429D01*
X152755477Y-114928619D01*
X152679286Y-115004810D01*
X152565000Y-115042905D01*
X152374524Y-115042905D01*
X151650714Y-116998714D02*
X151612619Y-117036810D01*
X151498333Y-117074905D01*
X151422143Y-117074905D01*
X151307857Y-117036810D01*
X151231666Y-116960619D01*
X151193571Y-116884429D01*
X151155476Y-116732048D01*
X151155476Y-116617762D01*
X151193571Y-116465381D01*
X151231666Y-116389190D01*
X151307857Y-116313000D01*
X151422143Y-116274905D01*
X151498333Y-116274905D01*
X151612619Y-116313000D01*
X151650714Y-116351095D01*
X151993571Y-116655857D02*
X152260238Y-116655857D01*
X152374524Y-117074905D02*
X151993571Y-117074905D01*
X151993571Y-116274905D01*
X152374524Y-116274905D01*
X150736429Y-119576810D02*
X150850715Y-119614905D01*
X151041191Y-119614905D01*
X151117381Y-119576810D01*
X151155477Y-119538714D01*
X151193572Y-119462524D01*
X151193572Y-119386333D01*
X151155477Y-119310143D01*
X151117381Y-119272048D01*
X151041191Y-119233952D01*
X150888810Y-119195857D01*
X150812619Y-119157762D01*
X150774524Y-119119667D01*
X150736429Y-119043476D01*
X150736429Y-118967286D01*
X150774524Y-118891095D01*
X150812619Y-118853000D01*
X150888810Y-118814905D01*
X151079286Y-118814905D01*
X151193572Y-118853000D01*
X151993572Y-119538714D02*
X151955477Y-119576810D01*
X151841191Y-119614905D01*
X151765001Y-119614905D01*
X151650715Y-119576810D01*
X151574524Y-119500619D01*
X151536429Y-119424429D01*
X151498334Y-119272048D01*
X151498334Y-119157762D01*
X151536429Y-119005381D01*
X151574524Y-118929190D01*
X151650715Y-118853000D01*
X151765001Y-118814905D01*
X151841191Y-118814905D01*
X151955477Y-118853000D01*
X151993572Y-118891095D01*
X152336429Y-119614905D02*
X152336429Y-118814905D01*
X152793572Y-119614905D02*
X152450715Y-119157762D01*
X152793572Y-118814905D02*
X152336429Y-119272048D01*
X150380857Y-122027905D02*
X150380857Y-121227905D01*
X150647524Y-121799333D01*
X150914191Y-121227905D01*
X150914191Y-122027905D01*
X151295143Y-122027905D02*
X151295143Y-121227905D01*
X151638000Y-121989810D02*
X151752286Y-122027905D01*
X151942762Y-122027905D01*
X152018952Y-121989810D01*
X152057048Y-121951714D01*
X152095143Y-121875524D01*
X152095143Y-121799333D01*
X152057048Y-121723143D01*
X152018952Y-121685048D01*
X151942762Y-121646952D01*
X151790381Y-121608857D01*
X151714190Y-121570762D01*
X151676095Y-121532667D01*
X151638000Y-121456476D01*
X151638000Y-121380286D01*
X151676095Y-121304095D01*
X151714190Y-121266000D01*
X151790381Y-121227905D01*
X151980857Y-121227905D01*
X152095143Y-121266000D01*
X152590381Y-121227905D02*
X152742762Y-121227905D01*
X152818953Y-121266000D01*
X152895143Y-121342190D01*
X152933238Y-121494571D01*
X152933238Y-121761238D01*
X152895143Y-121913619D01*
X152818953Y-121989810D01*
X152742762Y-122027905D01*
X152590381Y-122027905D01*
X152514191Y-121989810D01*
X152438000Y-121913619D01*
X152399905Y-121761238D01*
X152399905Y-121494571D01*
X152438000Y-121342190D01*
X152514191Y-121266000D01*
X152590381Y-121227905D01*
X150818953Y-124694905D02*
X150818953Y-123894905D01*
X151657048Y-124694905D02*
X151390381Y-124313952D01*
X151199905Y-124694905D02*
X151199905Y-123894905D01*
X151504667Y-123894905D01*
X151580858Y-123933000D01*
X151618953Y-123971095D01*
X151657048Y-124047286D01*
X151657048Y-124161571D01*
X151618953Y-124237762D01*
X151580858Y-124275857D01*
X151504667Y-124313952D01*
X151199905Y-124313952D01*
X152533239Y-124771095D02*
X152457048Y-124733000D01*
X152380858Y-124656810D01*
X152266572Y-124542524D01*
X152190381Y-124504429D01*
X152114191Y-124504429D01*
X152152286Y-124694905D02*
X152076096Y-124656810D01*
X151999905Y-124580619D01*
X151961810Y-124428238D01*
X151961810Y-124161571D01*
X151999905Y-124009190D01*
X152076096Y-123933000D01*
X152152286Y-123894905D01*
X152304667Y-123894905D01*
X152380858Y-123933000D01*
X152457048Y-124009190D01*
X152495143Y-124161571D01*
X152495143Y-124428238D01*
X152457048Y-124580619D01*
X152380858Y-124656810D01*
X152304667Y-124694905D01*
X152152286Y-124694905D01*
X150253857Y-127234905D02*
X150253857Y-126434905D01*
X150520524Y-127006333D01*
X150787191Y-126434905D01*
X150787191Y-127234905D01*
X151320524Y-126434905D02*
X151472905Y-126434905D01*
X151549096Y-126473000D01*
X151625286Y-126549190D01*
X151663381Y-126701571D01*
X151663381Y-126968238D01*
X151625286Y-127120619D01*
X151549096Y-127196810D01*
X151472905Y-127234905D01*
X151320524Y-127234905D01*
X151244334Y-127196810D01*
X151168143Y-127120619D01*
X151130048Y-126968238D01*
X151130048Y-126701571D01*
X151168143Y-126549190D01*
X151244334Y-126473000D01*
X151320524Y-126434905D01*
X151968143Y-127196810D02*
X152082429Y-127234905D01*
X152272905Y-127234905D01*
X152349095Y-127196810D01*
X152387191Y-127158714D01*
X152425286Y-127082524D01*
X152425286Y-127006333D01*
X152387191Y-126930143D01*
X152349095Y-126892048D01*
X152272905Y-126853952D01*
X152120524Y-126815857D01*
X152044333Y-126777762D01*
X152006238Y-126739667D01*
X151968143Y-126663476D01*
X151968143Y-126587286D01*
X152006238Y-126511095D01*
X152044333Y-126473000D01*
X152120524Y-126434905D01*
X152311000Y-126434905D01*
X152425286Y-126473000D01*
X152768143Y-127234905D02*
X152768143Y-126434905D01*
X150958619Y-129571714D02*
X150920524Y-129609810D01*
X150806238Y-129647905D01*
X150730048Y-129647905D01*
X150615762Y-129609810D01*
X150539571Y-129533619D01*
X150501476Y-129457429D01*
X150463381Y-129305048D01*
X150463381Y-129190762D01*
X150501476Y-129038381D01*
X150539571Y-128962190D01*
X150615762Y-128886000D01*
X150730048Y-128847905D01*
X150806238Y-128847905D01*
X150920524Y-128886000D01*
X150958619Y-128924095D01*
X151263381Y-129609810D02*
X151377667Y-129647905D01*
X151568143Y-129647905D01*
X151644333Y-129609810D01*
X151682429Y-129571714D01*
X151720524Y-129495524D01*
X151720524Y-129419333D01*
X151682429Y-129343143D01*
X151644333Y-129305048D01*
X151568143Y-129266952D01*
X151415762Y-129228857D01*
X151339571Y-129190762D01*
X151301476Y-129152667D01*
X151263381Y-129076476D01*
X151263381Y-129000286D01*
X151301476Y-128924095D01*
X151339571Y-128886000D01*
X151415762Y-128847905D01*
X151606238Y-128847905D01*
X151720524Y-128886000D01*
X152063381Y-129647905D02*
X152063381Y-128847905D01*
X152520524Y-129647905D01*
X152520524Y-128847905D01*
X150558619Y-131641905D02*
X150825286Y-132441905D01*
X151091953Y-131641905D01*
X151701476Y-132403810D02*
X151625286Y-132441905D01*
X151472905Y-132441905D01*
X151396714Y-132403810D01*
X151358619Y-132365714D01*
X151320524Y-132289524D01*
X151320524Y-132060952D01*
X151358619Y-131984762D01*
X151396714Y-131946667D01*
X151472905Y-131908571D01*
X151625286Y-131908571D01*
X151701476Y-131946667D01*
X152387190Y-132403810D02*
X152311000Y-132441905D01*
X152158619Y-132441905D01*
X152082428Y-132403810D01*
X152044333Y-132365714D01*
X152006238Y-132289524D01*
X152006238Y-132060952D01*
X152044333Y-131984762D01*
X152082428Y-131946667D01*
X152158619Y-131908571D01*
X152311000Y-131908571D01*
X152387190Y-131946667D01*
D13*
X156128333Y-115445000D02*
X156128333Y-133225000D01*
X156128333Y-133225000D02*
X153588333Y-133225000D01*
X153588333Y-133225000D02*
X153588333Y-115445000D01*
X156408333Y-112625000D02*
X156408333Y-114175000D01*
X156128333Y-115445000D02*
X153588333Y-115445000D01*
X153308333Y-114175000D02*
X153308333Y-112625000D01*
X153308333Y-112625000D02*
X156408333Y-112625000D01*
X129400000Y-117720000D02*
X129400000Y-127880000D01*
X147180000Y-117720000D02*
X147180000Y-127880000D01*
X129400000Y-127880000D02*
X147180000Y-127880000D01*
X147180000Y-117720000D02*
X129400000Y-117720000D01*
X141767000Y-130891000D02*
X141767000Y-140889000D01*
X141907000Y-130895000D02*
X141907000Y-140885000D01*
X142047000Y-130903000D02*
X142047000Y-140877000D01*
X142187000Y-130915000D02*
X142187000Y-140865000D01*
X142327000Y-130930000D02*
X142327000Y-140850000D01*
X142467000Y-130950000D02*
X142467000Y-140830000D01*
X142607000Y-130974000D02*
X142607000Y-140806000D01*
X142747000Y-131003000D02*
X142747000Y-140777000D01*
X142887000Y-131035000D02*
X142887000Y-140745000D01*
X143027000Y-131072000D02*
X143027000Y-140708000D01*
X143167000Y-131113000D02*
X143167000Y-140667000D01*
X143307000Y-131158000D02*
X143307000Y-135424000D01*
X143307000Y-136356000D02*
X143307000Y-140622000D01*
X143447000Y-131208000D02*
X143447000Y-135223000D01*
X143447000Y-136557000D02*
X143447000Y-140572000D01*
X143587000Y-131263000D02*
X143587000Y-135094000D01*
X143587000Y-136686000D02*
X143587000Y-140517000D01*
X143727000Y-131323000D02*
X143727000Y-135005000D01*
X143727000Y-136775000D02*
X143727000Y-140457000D01*
X143867000Y-131388000D02*
X143867000Y-134944000D01*
X143867000Y-136836000D02*
X143867000Y-140392000D01*
X144007000Y-131458000D02*
X144007000Y-134907000D01*
X144007000Y-136873000D02*
X144007000Y-140322000D01*
X144147000Y-131534000D02*
X144147000Y-134891000D01*
X144147000Y-136889000D02*
X144147000Y-140246000D01*
X144287000Y-131616000D02*
X144287000Y-134895000D01*
X144287000Y-136885000D02*
X144287000Y-140164000D01*
X144427000Y-131704000D02*
X144427000Y-134918000D01*
X144427000Y-136862000D02*
X144427000Y-140076000D01*
X144567000Y-131799000D02*
X144567000Y-134963000D01*
X144567000Y-136817000D02*
X144567000Y-139981000D01*
X144707000Y-131901000D02*
X144707000Y-135033000D01*
X144707000Y-136747000D02*
X144707000Y-139879000D01*
X144847000Y-132011000D02*
X144847000Y-135134000D01*
X144847000Y-136646000D02*
X144847000Y-139769000D01*
X144987000Y-132129000D02*
X144987000Y-135283000D01*
X144987000Y-136497000D02*
X144987000Y-139651000D01*
X145127000Y-132257000D02*
X145127000Y-135535000D01*
X145127000Y-136245000D02*
X145127000Y-139523000D01*
X145267000Y-132394000D02*
X145267000Y-139386000D01*
X145407000Y-132544000D02*
X145407000Y-139236000D01*
X145547000Y-132706000D02*
X145547000Y-139074000D01*
X145687000Y-132883000D02*
X145687000Y-138897000D01*
X145827000Y-133079000D02*
X145827000Y-138701000D01*
X145967000Y-133297000D02*
X145967000Y-138483000D01*
X146107000Y-133543000D02*
X146107000Y-138237000D01*
X146247000Y-133828000D02*
X146247000Y-137952000D01*
X146387000Y-134170000D02*
X146387000Y-137610000D01*
X146527000Y-134616000D02*
X146527000Y-137164000D01*
X146667000Y-135391000D02*
X146667000Y-136389000D01*
X145192000Y-135890000D02*
G75*
G03X145192000Y-135890000I-1000000J0D01*
G01*
X146729500Y-135890000D02*
G75*
G03X146729500Y-135890000I-5037500J0D01*
G01*
X151026905Y-113609381D02*
X151026905Y-112609381D01*
X151407858Y-112609381D01*
X151503096Y-112657000D01*
X151550715Y-112704619D01*
X151598334Y-112799857D01*
X151598334Y-112942714D01*
X151550715Y-113037952D01*
X151503096Y-113085571D01*
X151407858Y-113133190D01*
X151026905Y-113133190D01*
X152550715Y-113609381D02*
X151979286Y-113609381D01*
X152265000Y-113609381D02*
X152265000Y-112609381D01*
X152169762Y-112752238D01*
X152074524Y-112847476D01*
X151979286Y-112895095D01*
X135242095Y-128602381D02*
X135242095Y-129411905D01*
X135289714Y-129507143D01*
X135337333Y-129554762D01*
X135432571Y-129602381D01*
X135623048Y-129602381D01*
X135718286Y-129554762D01*
X135765905Y-129507143D01*
X135813524Y-129411905D01*
X135813524Y-128602381D01*
X136813524Y-129602381D02*
X136242095Y-129602381D01*
X136527809Y-129602381D02*
X136527809Y-128602381D01*
X136432571Y-128745238D01*
X136337333Y-128840476D01*
X136242095Y-128888095D01*
D14*
X140556190Y-127205237D02*
X141056190Y-127038570D01*
X140556190Y-126871904D01*
X141032381Y-126490952D02*
X141056190Y-126538571D01*
X141056190Y-126633809D01*
X141032381Y-126681428D01*
X141008571Y-126705237D01*
X140960952Y-126729047D01*
X140818095Y-126729047D01*
X140770476Y-126705237D01*
X140746667Y-126681428D01*
X140722857Y-126633809D01*
X140722857Y-126538571D01*
X140746667Y-126490952D01*
X141032381Y-126062381D02*
X141056190Y-126110000D01*
X141056190Y-126205238D01*
X141032381Y-126252857D01*
X141008571Y-126276666D01*
X140960952Y-126300476D01*
X140818095Y-126300476D01*
X140770476Y-126276666D01*
X140746667Y-126252857D01*
X140722857Y-126205238D01*
X140722857Y-126110000D01*
X140746667Y-126062381D01*
X141008571Y-124415238D02*
X141032381Y-124439048D01*
X141056190Y-124510476D01*
X141056190Y-124558095D01*
X141032381Y-124629524D01*
X140984762Y-124677143D01*
X140937143Y-124700952D01*
X140841905Y-124724762D01*
X140770476Y-124724762D01*
X140675238Y-124700952D01*
X140627619Y-124677143D01*
X140580000Y-124629524D01*
X140556190Y-124558095D01*
X140556190Y-124510476D01*
X140580000Y-124439048D01*
X140603810Y-124415238D01*
X141032381Y-124224762D02*
X141056190Y-124153333D01*
X141056190Y-124034286D01*
X141032381Y-123986667D01*
X141008571Y-123962857D01*
X140960952Y-123939048D01*
X140913333Y-123939048D01*
X140865714Y-123962857D01*
X140841905Y-123986667D01*
X140818095Y-124034286D01*
X140794286Y-124129524D01*
X140770476Y-124177143D01*
X140746667Y-124200952D01*
X140699048Y-124224762D01*
X140651429Y-124224762D01*
X140603810Y-124200952D01*
X140580000Y-124177143D01*
X140556190Y-124129524D01*
X140556190Y-124010476D01*
X140580000Y-123939048D01*
X141056190Y-123724762D02*
X140556190Y-123724762D01*
X141056190Y-123439048D01*
X140556190Y-123439048D01*
X141056190Y-122315714D02*
X140556190Y-122315714D01*
X140913333Y-122149048D01*
X140556190Y-121982381D01*
X141056190Y-121982381D01*
X140556190Y-121649047D02*
X140556190Y-121553809D01*
X140580000Y-121506190D01*
X140627619Y-121458571D01*
X140722857Y-121434762D01*
X140889524Y-121434762D01*
X140984762Y-121458571D01*
X141032381Y-121506190D01*
X141056190Y-121553809D01*
X141056190Y-121649047D01*
X141032381Y-121696666D01*
X140984762Y-121744285D01*
X140889524Y-121768095D01*
X140722857Y-121768095D01*
X140627619Y-121744285D01*
X140580000Y-121696666D01*
X140556190Y-121649047D01*
X141032381Y-121244285D02*
X141056190Y-121172856D01*
X141056190Y-121053809D01*
X141032381Y-121006190D01*
X141008571Y-120982380D01*
X140960952Y-120958571D01*
X140913333Y-120958571D01*
X140865714Y-120982380D01*
X140841905Y-121006190D01*
X140818095Y-121053809D01*
X140794286Y-121149047D01*
X140770476Y-121196666D01*
X140746667Y-121220475D01*
X140699048Y-121244285D01*
X140651429Y-121244285D01*
X140603810Y-121220475D01*
X140580000Y-121196666D01*
X140556190Y-121149047D01*
X140556190Y-121029999D01*
X140580000Y-120958571D01*
X141056190Y-120744285D02*
X140556190Y-120744285D01*
X141056190Y-119501904D02*
X140556190Y-119501904D01*
X141056190Y-118978095D02*
X140818095Y-119144762D01*
X141056190Y-119263809D02*
X140556190Y-119263809D01*
X140556190Y-119073333D01*
X140580000Y-119025714D01*
X140603810Y-119001905D01*
X140651429Y-118978095D01*
X140722857Y-118978095D01*
X140770476Y-119001905D01*
X140794286Y-119025714D01*
X140818095Y-119073333D01*
X140818095Y-119263809D01*
X141103810Y-118430476D02*
X141080000Y-118478095D01*
X141032381Y-118525714D01*
X140960952Y-118597143D01*
X140937143Y-118644762D01*
X140937143Y-118692381D01*
X141056190Y-118668571D02*
X141032381Y-118716190D01*
X140984762Y-118763809D01*
X140889524Y-118787619D01*
X140722857Y-118787619D01*
X140627619Y-118763809D01*
X140580000Y-118716190D01*
X140556190Y-118668571D01*
X140556190Y-118573333D01*
X140580000Y-118525714D01*
X140627619Y-118478095D01*
X140722857Y-118454286D01*
X140889524Y-118454286D01*
X140984762Y-118478095D01*
X141032381Y-118525714D01*
X141056190Y-118573333D01*
X141056190Y-118668571D01*
X146136190Y-119775714D02*
X145636190Y-119775714D01*
X145993333Y-119609048D01*
X145636190Y-119442381D01*
X146136190Y-119442381D01*
X146136190Y-119204285D02*
X145636190Y-119204285D01*
X146112381Y-118990000D02*
X146136190Y-118918571D01*
X146136190Y-118799524D01*
X146112381Y-118751905D01*
X146088571Y-118728095D01*
X146040952Y-118704286D01*
X145993333Y-118704286D01*
X145945714Y-118728095D01*
X145921905Y-118751905D01*
X145898095Y-118799524D01*
X145874286Y-118894762D01*
X145850476Y-118942381D01*
X145826667Y-118966190D01*
X145779048Y-118990000D01*
X145731429Y-118990000D01*
X145683810Y-118966190D01*
X145660000Y-118942381D01*
X145636190Y-118894762D01*
X145636190Y-118775714D01*
X145660000Y-118704286D01*
X145636190Y-118394762D02*
X145636190Y-118299524D01*
X145660000Y-118251905D01*
X145707619Y-118204286D01*
X145802857Y-118180477D01*
X145969524Y-118180477D01*
X146064762Y-118204286D01*
X146112381Y-118251905D01*
X146136190Y-118299524D01*
X146136190Y-118394762D01*
X146112381Y-118442381D01*
X146064762Y-118490000D01*
X145969524Y-118513810D01*
X145802857Y-118513810D01*
X145707619Y-118490000D01*
X145660000Y-118442381D01*
X145636190Y-118394762D01*
X146112381Y-122172857D02*
X146136190Y-122101428D01*
X146136190Y-121982381D01*
X146112381Y-121934762D01*
X146088571Y-121910952D01*
X146040952Y-121887143D01*
X145993333Y-121887143D01*
X145945714Y-121910952D01*
X145921905Y-121934762D01*
X145898095Y-121982381D01*
X145874286Y-122077619D01*
X145850476Y-122125238D01*
X145826667Y-122149047D01*
X145779048Y-122172857D01*
X145731429Y-122172857D01*
X145683810Y-122149047D01*
X145660000Y-122125238D01*
X145636190Y-122077619D01*
X145636190Y-121958571D01*
X145660000Y-121887143D01*
X146088571Y-121387143D02*
X146112381Y-121410953D01*
X146136190Y-121482381D01*
X146136190Y-121530000D01*
X146112381Y-121601429D01*
X146064762Y-121649048D01*
X146017143Y-121672857D01*
X145921905Y-121696667D01*
X145850476Y-121696667D01*
X145755238Y-121672857D01*
X145707619Y-121649048D01*
X145660000Y-121601429D01*
X145636190Y-121530000D01*
X145636190Y-121482381D01*
X145660000Y-121410953D01*
X145683810Y-121387143D01*
X146136190Y-121172857D02*
X145636190Y-121172857D01*
X146136190Y-120887143D02*
X145850476Y-121101429D01*
X145636190Y-120887143D02*
X145921905Y-121172857D01*
X146088571Y-124141428D02*
X146112381Y-124165238D01*
X146136190Y-124236666D01*
X146136190Y-124284285D01*
X146112381Y-124355714D01*
X146064762Y-124403333D01*
X146017143Y-124427142D01*
X145921905Y-124450952D01*
X145850476Y-124450952D01*
X145755238Y-124427142D01*
X145707619Y-124403333D01*
X145660000Y-124355714D01*
X145636190Y-124284285D01*
X145636190Y-124236666D01*
X145660000Y-124165238D01*
X145683810Y-124141428D01*
X145874286Y-123927142D02*
X145874286Y-123760476D01*
X146136190Y-123689047D02*
X146136190Y-123927142D01*
X145636190Y-123927142D01*
X145636190Y-123689047D01*
X145660000Y-126990953D02*
X145636190Y-127038572D01*
X145636190Y-127110000D01*
X145660000Y-127181429D01*
X145707619Y-127229048D01*
X145755238Y-127252857D01*
X145850476Y-127276667D01*
X145921905Y-127276667D01*
X146017143Y-127252857D01*
X146064762Y-127229048D01*
X146112381Y-127181429D01*
X146136190Y-127110000D01*
X146136190Y-127062381D01*
X146112381Y-126990953D01*
X146088571Y-126967143D01*
X145921905Y-126967143D01*
X145921905Y-127062381D01*
X146136190Y-126752857D02*
X145636190Y-126752857D01*
X146136190Y-126467143D01*
X145636190Y-126467143D01*
X146136190Y-126229047D02*
X145636190Y-126229047D01*
X145636190Y-126110000D01*
X145660000Y-126038571D01*
X145707619Y-125990952D01*
X145755238Y-125967143D01*
X145850476Y-125943333D01*
X145921905Y-125943333D01*
X146017143Y-125967143D01*
X146064762Y-125990952D01*
X146112381Y-126038571D01*
X146136190Y-126110000D01*
X146136190Y-126229047D01*
D13*
X141525334Y-129947143D02*
X141477715Y-129994762D01*
X141334858Y-130042381D01*
X141239620Y-130042381D01*
X141096762Y-129994762D01*
X141001524Y-129899524D01*
X140953905Y-129804286D01*
X140906286Y-129613810D01*
X140906286Y-129470952D01*
X140953905Y-129280476D01*
X141001524Y-129185238D01*
X141096762Y-129090000D01*
X141239620Y-129042381D01*
X141334858Y-129042381D01*
X141477715Y-129090000D01*
X141525334Y-129137619D01*
X142477715Y-130042381D02*
X141906286Y-130042381D01*
X142192000Y-130042381D02*
X142192000Y-129042381D01*
X142096762Y-129185238D01*
X142001524Y-129280476D01*
X141906286Y-129328095D01*
M02*
